<svg id="visual" viewBox="0 0 1920 600" width="1920" height="600" xmlns="http://www.w3.org/2000/svg" xmlns:xlink="http://www.w3.org/1999/xlink" version="1.1"><rect x="0" y="0" width="1920" height="600" fill="#002233"></rect><path d="M0 495L21.3 489C42.7 483 85.3 471 128 470.3C170.7 469.7 213.3 480.3 256 464.7C298.7 449 341.3 407 384 395.2C426.7 383.3 469.3 401.7 512 422.2C554.7 442.7 597.3 465.3 640 470.2C682.7 475 725.3 462 768 461.7C810.7 461.3 853.3 473.7 896 471.3C938.7 469 981.3 452 1024 435.5C1066.7 419 1109.3 403 1152 388C1194.7 373 1237.3 359 1280 378.3C1322.7 397.7 1365.3 450.3 1408 465.3C1450.7 480.3 1493.3 457.7 1536 443C1578.7 428.3 1621.3 421.7 1664 433.5C1706.7 445.3 1749.3 475.7 1792 475.2C1834.7 474.7 1877.3 443.3 1898.7 427.7L1920 412L1920 601L1898.7 601C1877.3 601 1834.7 601 1792 601C1749.3 601 1706.7 601 1664 601C1621.3 601 1578.7 601 1536 601C1493.3 601 1450.7 601 1408 601C1365.3 601 1322.7 601 1280 601C1237.3 601 1194.7 601 1152 601C1109.3 601 1066.7 601 1024 601C981.3 601 938.7 601 896 601C853.3 601 810.7 601 768 601C725.3 601 682.7 601 640 601C597.3 601 554.7 601 512 601C469.3 601 426.7 601 384 601C341.3 601 298.7 601 256 601C213.3 601 170.7 601 128 601C85.3 601 42.7 601 21.3 601L0 601Z" fill="#0066FF" stroke-linecap="round" stroke-linejoin="miter"></path></svg>