<svg id="visual" viewBox="0 0 1920 980" width="1920" height="980" xmlns="http://www.w3.org/2000/svg" xmlns:xlink="http://www.w3.org/1999/xlink" version="1.1"><rect x="0" y="0" width="1920" height="980" fill="#001220"></rect><path d="M0 518L29.2 506.3C58.3 494.7 116.7 471.3 174.8 480.8C233 490.3 291 532.7 349.2 551.3C407.3 570 465.7 565 523.8 577C582 589 640 618 698.2 600.7C756.3 583.3 814.7 519.7 872.8 517.3C931 515 989 574 1047.2 599.3C1105.3 624.7 1163.7 616.3 1221.8 615.3C1280 614.3 1338 620.7 1396.2 588.7C1454.3 556.7 1512.7 486.3 1570.8 465C1629 443.7 1687 471.3 1745.2 509.2C1803.3 547 1861.7 595 1890.8 619L1920 643L1920 981L1890.8 981C1861.7 981 1803.3 981 1745.2 981C1687 981 1629 981 1570.8 981C1512.7 981 1454.3 981 1396.2 981C1338 981 1280 981 1221.8 981C1163.7 981 1105.3 981 1047.2 981C989 981 931 981 872.8 981C814.7 981 756.3 981 698.2 981C640 981 582 981 523.8 981C465.7 981 407.3 981 349.2 981C291 981 233 981 174.8 981C116.7 981 58.3 981 29.2 981L0 981Z" fill="#002233"></path><path d="M0 723L29.2 710C58.3 697 116.7 671 174.8 652.5C233 634 291 623 349.2 634.7C407.3 646.3 465.7 680.7 523.8 691C582 701.3 640 687.7 698.2 658C756.3 628.3 814.7 582.7 872.8 586.3C931 590 989 643 1047.2 671.2C1105.3 699.3 1163.7 702.7 1221.8 704.7C1280 706.7 1338 707.3 1396.2 695C1454.3 682.7 1512.7 657.3 1570.8 650.3C1629 643.3 1687 654.7 1745.2 669.2C1803.3 683.7 1861.7 701.3 1890.8 710.2L1920 719L1920 981L1890.8 981C1861.7 981 1803.3 981 1745.2 981C1687 981 1629 981 1570.8 981C1512.7 981 1454.3 981 1396.2 981C1338 981 1280 981 1221.8 981C1163.7 981 1105.3 981 1047.2 981C989 981 931 981 872.8 981C814.7 981 756.3 981 698.2 981C640 981 582 981 523.8 981C465.7 981 407.3 981 349.2 981C291 981 233 981 174.8 981C116.7 981 58.3 981 29.2 981L0 981Z" fill="#253463"></path><path d="M0 776L29.2 767.5C58.3 759 116.7 742 174.8 746.3C233 750.7 291 776.3 349.2 786.3C407.3 796.3 465.7 790.7 523.8 776C582 761.3 640 737.7 698.2 735.5C756.3 733.3 814.7 752.7 872.8 757.7C931 762.7 989 753.3 1047.2 735.5C1105.3 717.7 1163.7 691.3 1221.8 697.8C1280 704.3 1338 743.7 1396.2 742.7C1454.3 741.7 1512.7 700.3 1570.8 686.2C1629 672 1687 685 1745.2 686.5C1803.3 688 1861.7 678 1890.8 673L1920 668L1920 981L1890.8 981C1861.7 981 1803.3 981 1745.2 981C1687 981 1629 981 1570.8 981C1512.7 981 1454.3 981 1396.2 981C1338 981 1280 981 1221.8 981C1163.7 981 1105.3 981 1047.2 981C989 981 931 981 872.8 981C814.7 981 756.3 981 698.2 981C640 981 582 981 523.8 981C465.7 981 407.3 981 349.2 981C291 981 233 981 174.8 981C116.7 981 58.3 981 29.2 981L0 981Z" fill="#77347b"></path><path d="M0 789L29.2 795C58.3 801 116.7 813 174.8 823.3C233 833.7 291 842.3 349.2 844.8C407.3 847.3 465.7 843.7 523.8 841C582 838.3 640 836.7 698.2 831.8C756.3 827 814.7 819 872.8 813.7C931 808.3 989 805.7 1047.2 820.7C1105.3 835.7 1163.7 868.3 1221.8 879.2C1280 890 1338 879 1396.2 862C1454.3 845 1512.7 822 1570.8 828.5C1629 835 1687 871 1745.2 887.5C1803.3 904 1861.7 901 1890.8 899.5L1920 898L1920 981L1890.8 981C1861.7 981 1803.3 981 1745.2 981C1687 981 1629 981 1570.8 981C1512.7 981 1454.3 981 1396.2 981C1338 981 1280 981 1221.8 981C1163.7 981 1105.3 981 1047.2 981C989 981 931 981 872.8 981C814.7 981 756.3 981 698.2 981C640 981 582 981 523.8 981C465.7 981 407.3 981 349.2 981C291 981 233 981 174.8 981C116.7 981 58.3 981 29.2 981L0 981Z" fill="#c62368"></path></svg>